<svg xmlns="http://www.w3.org/2000/svg" xmlns:xlink="http://www.w3.org/1999/xlink" viewBox="0 0 324.79 324.36"><defs><style>.cls-1{fill:url(#linear-gradient);}.cls-2{fill:#fff;}</style><linearGradient id="linear-gradient" x1="20.09" y1="62.53" x2="286.14" y2="248.83" gradientTransform="translate(31.51 -26.35) rotate(10.27)" gradientUnits="userSpaceOnUse"><stop offset="0" stop-color="#ff9472"/><stop offset="0.3" stop-color="#fc8c7b"/><stop offset="0.79" stop-color="#f47695"/><stop offset="0.92" stop-color="#f2709c"/></linearGradient></defs><g id="Layer_2" data-name="Layer 2"><g id="Layer_1-2" data-name="Layer 1"><g id="Icon"><rect class="cls-1" x="10.84" y="10.9" width="303.11" height="302.57" rx="84.51" transform="translate(-26.31 31.54) rotate(-10.27)"/><path class="cls-2" d="M246.6,202.68a80.5,80.5,0,0,1-23.58,27q-14.55,10.5-34.3,14.31a85.31,85.31,0,0,1-34.19-.1,82,82,0,0,1-52.27-35.4A88.1,88.1,0,0,1,89.66,143a82.1,82.1,0,0,1,35.4-52.27A85.24,85.24,0,0,1,156.78,78q19.08-3.67,34.9.19a79.74,79.74,0,0,1,29.57,14.33L204.1,117a57.66,57.66,0,0,0-18.83-10q-10.16-3.1-22.8-.67a56.92,56.92,0,0,0-20.12,7.9,51.32,51.32,0,0,0-14.86,14.25,52.67,52.67,0,0,0-8.12,19.4,58.77,58.77,0,0,0,.12,23.33A58.84,58.84,0,0,0,128,192.93a52.72,52.72,0,0,0,14.74,15,51.41,51.41,0,0,0,19.09,7.72,57,57,0,0,0,21.61-.13,51,51,0,0,0,22.59-10,59.3,59.3,0,0,0,15.34-18.94Z"/><circle class="cls-2" cx="168.87" cy="161.82" r="9.5"/></g></g></g></svg>